# AST/ASF file generated using VICON BodyLanguage
# -----------------------------------------------
:version 1.10
:name VICON
:units
  mass 1.0
  length 0.45
  angle deg
:documentation
   .ast/.asf automatically generated from VICON data using
   VICON BodyBuilder and BodyLanguage model FoxedUp or BRILLIANT.MOD
:root
   order TX TY TZ RX RY RZ
   axis XYZ
   position 0 0 0  
   orientation 0 0 0 
:bonedata
  begin
     id 1 
     name lhipjoint
     direction 0.645893 -0.654526 0.392961 
     length 2.38111 
     axis 0 0 0  XYZ
  end
  begin
     id 2 
     name lfemur
     direction 0.34202 -0.939693 0  
     length 6.6822  
     axis 0 0 20  XYZ
    dof rx ry rz
    limits (-160.0 20.0)
           (-70.0 70.0)
           (-60.0 70.0)
  end
  begin
     id 3 
     name ltibia
     direction 0.34202 -0.939693 0   
     length 6.93904   
     axis 0 0 20   XYZ
    dof rx
    limits (-10.0 170.0)
  end
  begin
     id 4 
     name lfoot
     direction 0.0694967 -0.190941 0.979138   
     length 2.13616   
     axis -90 7.62852e-016 20   XYZ
    dof rx rz
    limits (-45.0 90.0)
           (-70.0 20.0)
  end
  begin
     id 5 
     name ltoes
     direction 1.535e-011 -4.2202e-011 1   
     length 1.07536   
     axis -90 7.62852e-016 20   XYZ
    dof rx
    limits (-90.0 20.0)
  end
  begin
     id 6 
     name rhipjoint
     direction -0.700219 -0.612087 0.367481   
     length 2.54621  
     axis 0 0 0  XYZ 
  end
  begin
     id 7 
     name rfemur
     direction -0.34202 -0.939693 0   
     length 6.55353   
     axis 0 0 -20   XYZ
    dof rx ry rz
    limits (-160.0 20.0)
           (-70.0 70.0)
           (-70.0 60.0)
  end
  begin
     id 8 
     name rtibia
     direction -0.34202 -0.939693 0   
     length 6.8736   
     axis 0 0 -20   XYZ
    dof rx
    limits (-10.0 170.0)
 end
 begin
     id 9 
     name rfoot
     direction -0.0679995 -0.186827 0.980037   
     length 2.1218  
     axis -90 -7.62852e-016 -20   XYZ
    dof rx rz
    limits (-45.0 90.0)
           (-20.0 70.0)
  end
  begin
     id 10 
     name rtoes
     direction -1.53589e-011 -4.21772e-011 1   
     length 1.06864   
     axis -90 -7.62852e-016 -20   XYZ
    dof rx
    limits (-90.0 20.0)
  end
  begin
     id 11 
     name lowerback
     direction -0.0416607 0.996347 -0.0745409   
     length 2.12205   
     axis 0 0 0   XYZ
    dof rx ry rz
    limits (-20.0 45.0)
           (-30.0 30.0)
           (-30.0 30.0)
  end
  begin
     id 12 
     name upperback
     direction -0.000153993 0.999276 -0.0380568   
     length 2.12759   
     axis 0 0 0   XYZ
    dof rx ry rz
    limits (-20.0 45.0)
           (-30.0 30.0)
           (-30.0 30.0)
  end
  begin
     id 13 
     name thorax
     direction 0.0187671 0.999821 -0.00241421   
     length 2.13704   
     axis 0 0 0   XYZ
    dof rx ry rz
    limits (-20.0 45.0)
           (-30.0 30.0)
           (-30.0 30.0)
  end
  begin
     id 14 
     name lowerneck
     direction 0.0268157 0.964865 0.261374   
     length 1.65253   
     axis 0 0 0   XYZ
    dof rx ry rz
    limits (-20.0 45.0)
           (-30.0 30.0)
           (-30.0 30.0)
  end
  begin
     id 15 
     name upperneck
     direction 0.00263774 0.939908 -0.341418   
     length 1.72375   
     axis 0 0 0   XYZ
    dof rx ry rz
    limits (-20.0 45.0)
           (-30.0 30.0)
           (-30.0 30.0)
  end
  begin
     id 16
     name head
     direction -0.00526001 0.989001 -0.147818  
     length 1.74878  
     axis 0 0 0   XYZ
    dof rx ry rz
    limits (-20.0 45.0)
           (-30.0 30.0)
           (-30.0 30.0)
  end
  begin
     id 17 
     name lclavicle
     direction 0.881214 0.461162 -0.103884  
     length 3.25108  
     axis 0 0 0   XYZ
    dof ry rz
    limits (-20.0 10.0)
           (0.0 20.0)
  end
  begin
     id 18 
     name lhumerus
     direction 1 -4.4899e-011 3.38092e-027   
     length 4.87408   
     axis 180 -30 -90   XYZ
    dof rx ry rz
    limits (-60.0 90.0)
           (-90.0 90.0)
           (-90.0 90.0)
  end
  begin
     id 19
     name lradius
     direction 1 -4.48931e-011 9.96288e-027   
     length 2.76729   
     axis 180 -30 -90   XYZ
    dof rx
    limits (-10.0 170.0)
  end
  begin
     id 20
     name lwrist
     direction 1 -4.4896e-011 1.50617e-026   
     length 1.38364   
     axis -9.31234e-015 90 90   XYZ
    dof ry
    limits (-180.0 0.0)
 end
  begin
     id 21 
     name lhand
     direction 1 -4.49038e-011 3.01286e-026   
     length 0.98922   
     axis -1.92217e-014 90 90   XYZ
    dof rx rz
    limits (-90.0 90.0)
           (-45.0 45.0)
  end
  begin
     id 22 
     name lfingers
     direction 1 -4.49051e-011 6.02588e-026   
     length 0.797535   
     axis -3.84436e-014 90 90   XYZ
    dof rx
    limits (0.0 90.0)
  end
  begin
     id 23
     name lthumb
     direction 0.707107 -6.34901e-011 0.707107   
     length 1.14511   
     axis -90 45 2.19363e-014   XYZ
    dof rx rz
    limits (-45.0 45.0)
           (-45.0 45.0)
  end
  begin
     id 24 
     name rclavicle
     direction -0.893894 0.441652 -0.0767889   
     length 3.29361  
     axis 0 0 0   XYZ 
    dof ry rz
    limits (-10.0 20.0)
           (-20.0 0.0)
  end
  begin
     id 25 
     name rhumerus
     direction -1 -4.48945e-011 8.0491e-028  
     length 4.71404   
     axis 180 30 90   XYZ
    dof rx ry rz
    limits (-90.0 60.0)
           (-90.0 90.0)
           (-90.0 90.0)
  end
  begin
     id 26 
     name rradius
     direction -1 -4.48986e-011 9.27795e-027   
     length 2.83468   
     axis 180 30 90   XYZ
    dof rx
    limits (-10.0 170.0)
  end
  begin
     id 27 
     name rwrist
     direction -1 -4.49029e-011 1.5064e-026   
     length 1.41734   
     axis -9.31234e-015 -90 -90   XYZ
    dof ry
    limits (-180.0 0.0)
  end
  begin
     id 28
     name rhand
     direction -1 -4.48857e-011 3.01165e-026   
     length 0.868195   
     axis -1.92217e-014 -90 -90   XYZ
    dof rx rz
    limits (-90.0 90.0)
           (-45.0 45.0)
  end
  begin
     id 29
     name rfingers
     direction -1 -4.49048e-011 6.02585e-026   
     length 0.699961   
     axis -3.84436e-014 -90 -90   XYZ
    dof rx
    limits (0.0 90.0)
  end
  begin
     id 30
     name rthumb
     direction -0.707107 -6.34854e-011 0.707107   
     length 1.00501   
     axis -90 -45 -2.19363e-014   XYZ
    dof rx rz
    limits (-45.0 45.0)
           (-45.0 45.0)
  end
:hierarchy
  begin
    root lhipjoint rhipjoint lowerback
    lhipjoint lfemur
    lfemur ltibia
    ltibia lfoot
    lfoot ltoes
    rhipjoint rfemur
    rfemur rtibia
    rtibia rfoot
    rfoot rtoes
    lowerback upperback
    upperback thorax
    thorax lowerneck lclavicle rclavicle
    lowerneck upperneck
    upperneck head
    lclavicle lhumerus
    lhumerus lradius
    lradius lwrist
    lwrist lhand lthumb
    lhand lfingers
    rclavicle rhumerus
    rhumerus rradius
    rradius rwrist
    rwrist rhand rthumb
    rhand rfingers
  end

#!OML:ASF H:\ManfredObstacles\Project 1\Capture day 2\Session 1\male.ASF
:FULLY-SPECIFIED
:DEGREES
17
root 1.27288 14.9436 23.1145 -179.351 0.45502 176.388
lowerback -2.27303 4.18576 -5.59804
upperback 1.39206 5.91932 -1.79549
thorax 2.33917 2.91619 1.50191
lowerneck -33.9456 -2.36374 -3.49189
upperneck 42.3128 -7.26879 4.00441
head 25.9398 -3.4729 0.298781
rclavicle -1.02374e-014 6.36111e-015
rhumerus -49.7047 12.3624 -96.5687
rradius 82.3262
rwrist 10.9458
rhand -13.385 -3.90781
rfingers 7.12502
rthumb 12.7221 -33.5003
lclavicle -1.02374e-014 6.36111e-015
lhumerus -69.6577 -18.8912 92.5869
lradius 98.4308
lwrist -18.9889
lhand -16.9852 3.0787
lfingers 7.12502
lthumb 9.24967 32.8558
rfemur 0.465603 -3.62939 14.8985
rtibia 83.0087
rfoot 17.8624 -17.5067
rtoes -19.0427
lfemur -32.3543 -3.59122 -25.5744
ltibia 50.857
lfoot 4.73273 20.9093
ltoes -4.16438
18
root 1.26147 14.8482 22.8164 -179.986 0.734015 175.258
lowerback -1.69961 4.03827 -6.62311
upperback 1.61714 5.77127 -2.10679
thorax 2.19899 2.84631 1.7024
lowerneck -33.776 -2.17216 -3.31345
upperneck 42.2022 -7.08764 4.07027
head 25.7239 -3.37823 0.365703
rclavicle 2.40778e-014 1.94809e-014
rhumerus -50.4406 10.2361 -95.1315
rradius 79.9695
rwrist 11.597
rhand -13.7879 -4.57267
rfingers 7.12502
rthumb 12.3336 -34.1889
lclavicle 2.40778e-014 1.94809e-014
lhumerus -67.4513 -18.1761 92.6775
lradius 96.8232
lwrist -19.1924
lhand -17.2312 3.41365
lfingers 7.12502
lthumb 9.01224 33.2011
rfemur -2.04271 -3.63071 13.2859
rtibia 87.2313
rfoot 15.9848 -17.6114
rtoes -18.6219
lfemur -31.0422 -3.6802 -26.9355
ltibia 52.2896
lfoot 3.52045 22.4902
ltoes -4.62336
19
root 1.25337 14.7619 22.5269 -180.55 1.17024 174.21
lowerback -1.20005 3.9406 -7.56919
upperback 1.81326 5.68476 -2.40447
thorax 2.07654 2.80951 1.88015
lowerneck -33.6675 -1.98042 -3.14881
upperneck 42.1192 -6.90293 4.13409
head 25.5675 -3.28411 0.432555
rclavicle 6.55492e-014 3.61788e-014
rhumerus -51.1477 8.15785 -93.4939
rradius 77.4472
rwrist 12.1098
rhand -14.0727 -5.44798
rfingers 7.12502
rthumb 12.059 -35.0805
lclavicle 6.55492e-014 3.61788e-014
lhumerus -65.157 -17.4907 92.7544
lradius 95.1748
lwrist -19.5768
lhand -17.3888 3.88099
lfingers 7.12502
lthumb 8.86014 33.675
rfemur -4.89268 -3.45572 11.8807
rtibia 91.2229
rfoot 14.0266 -17.7119
rtoes -18.3792
lfemur -29.6979 -3.45492 -28.1827
ltibia 53.4412
lfoot 2.39109 23.8797
ltoes -5.26058
20
root 1.24768 14.6853 22.245 -181.018 1.71869 173.366
lowerback -0.791607 3.86955 -8.29721
upperback 1.94808 5.62032 -2.66515
thorax 1.95823 2.78631 1.98174
lowerneck -33.5704 -1.76166 -2.94675
upperneck 42.0704 -6.70427 4.17876
head 25.4479 -3.18362 0.483
rclavicle 7.95139e-016 2.78299e-015
rhumerus -51.8724 6.17789 -91.7026
rradius 74.8148
rwrist 12.4826
rhand -14.214 -6.47209
rfingers 7.12502
rthumb 11.9228 -36.1126
lclavicle 7.95139e-016 2.78299e-015
lhumerus -62.906 -16.8142 92.7925
lradius 93.6063
lwrist -20.1306
lhand -17.4349 4.44547
lfingers 7.12502
lthumb 8.81566 34.2413
rfemur -8.05974 -3.12766 10.8741
rtibia 94.8781
rfoot 12.1018 -17.8904
rtoes -18.3102
lfemur -28.3917 -2.95604 -29.189
ltibia 54.3903
lfoot 1.25811 25.1617
ltoes -5.90443
21
root 1.24258 14.6184 21.9672 -181.382 2.34761 172.794
lowerback -0.494421 3.79569 -8.71934
upperback 2.00904 5.53576 -2.87583
thorax 1.84978 2.75457 1.97404
lowerneck -33.4443 -1.4919 -2.70346
upperneck 42.0745 -6.47372 4.21267
head 25.3666 -3.07364 0.526292
rclavicle -6.07287e-014 5.12864e-014
rhumerus -52.6701 4.38599 -89.8252
rradius 72.1657
rwrist 12.6125
rhand -14.2609 -7.5649
rfingers 7.12502
rthumb 11.8775 -37.208
lclavicle -6.07287e-014 5.12864e-014
lhumerus -60.8126 -16.0865 92.7719
lradius 92.2333
lwrist -20.7504
lhand -17.3833 4.9325
lfingers 7.12502
lthumb 8.8655 34.7263
rfemur -11.493 -2.66061 10.3613
rtibia 98.1097
rfoot 10.3059 -18.192
rtoes -18.338
lfemur -27.1358 -2.2738 -29.8905
ltibia 55.1839
lfoot 0.112595 26.3781
ltoes -6.56266
22
root 1.23751 14.5612 21.6917 -181.662 2.9883 172.447
lowerback -0.321124 3.56524 -9.00527
upperback 2.03652 5.21922 -2.87338
thorax 1.78872 2.59587 2.12027
lowerneck -33.3598 -1.09316 -2.64538
upperneck 42.1931 -5.90001 4.17503
head 25.3962 -2.90154 0.666441
rclavicle -2.15681e-014 -2.3059e-014
rhumerus -53.4716 3.3742 -87.8014
rradius 69.5621
rwrist 12.3193
rhand -14.2589 -8.64896
rfingers 7.12502
rthumb 11.8795 -38.292
lclavicle -2.15681e-014 -2.3059e-014
lhumerus -58.8979 -14.7481 92.8024
lradius 91.1203
lwrist -21.3689
lhand -17.3 5.23631
lfingers 7.12502
lthumb 8.94581 35.0267
rfemur -15.0975 -2.11044 10.2665
rtibia 100.858
rfoot 8.61924 -18.616
rtoes -18.4716
lfemur -25.898 -1.52946 -30.3409
ltibia 55.8322
lfoot -1.08898 27.5495
ltoes -7.18475
23
root 1.23271 14.5125 21.4162 -181.898 3.5763 172.221
lowerback -0.211241 3.30108 -9.12686
upperback 2.04477 4.85774 -2.8816
thorax 1.76383 2.4153 2.17172
lowerneck -33.2757 -0.663169 -2.50601
upperneck 42.3389 -5.33786 4.12347
head 25.4505 -2.72429 0.777236
rclavicle 3.2464e-014 -2.22639e-014
rhumerus -54.262 2.50108 -85.759
rradius 67.0551
rwrist 11.8169
rhand -14.3073 -9.53321
rfingers 7.12502
rthumb 11.8328 -39.1789
lclavicle 3.2464e-014 -2.22639e-014
lhumerus -57.1669 -13.4757 92.782
lradius 90.331
lwrist -21.7157
lhand -17.2313 5.32509
lfingers 7.12502
lthumb 9.01214 35.1126
rfemur -18.7511 -1.54197 10.4144
rtibia 103.09
rfoot 6.98274 -19.1134
rtoes -18.5796
lfemur -24.6103 -0.818053 -30.6619
ltibia 56.3245
lfoot -2.31273 28.6633
ltoes -7.82783
24
root 1.22899 14.4708 21.1411 -182.129 4.03136 172.021
lowerback -0.0877325 2.96057 -9.20825
upperback 2.03835 4.38943 -2.88753
thorax 1.73086 2.1823 2.20331
lowerneck -33.2008 -0.201457 -2.35626
upperneck 42.5274 -4.74073 4.05439
head 25.5516 -2.54162 0.884408
rclavicle 7.61594e-015 2.78299e-014
rhumerus -55.033 1.85404 -83.6942
rradius 64.7153
rwrist 10.9871
rhand -14.3694 -10.1721
rfingers 7.12502
rthumb 11.7729 -39.8213
lclavicle 7.61594e-015 2.78299e-014
lhumerus -55.6488 -12.2209 92.7568
lradius 89.8878
lwrist -21.735
lhand -17.1958 5.22324
lfingers 7.12502
lthumb 9.04637 35.0093
rfemur -22.3424 -1.04801 10.6403
rtibia 104.79
rfoot 5.3302 -19.6348
rtoes -18.801
lfemur -23.2328 -0.228596 -30.9533
ltibia 56.6585
lfoot -3.45374 29.6658
ltoes -8.56549
25
root 1.22687 14.4358 20.8661 -182.382 4.29348 171.812
lowerback 0.0960797 2.57953 -9.26356
upperback 2.03237 3.86582 -2.94616
thorax 1.67701 1.92589 2.16401
lowerneck -33.1295 0.253508 -2.12356
upperneck 42.7194 -4.20714 3.96908
head 25.6629 -2.36838 0.945104
rclavicle -1.3977e-014 -7.15625e-015
rhumerus -55.8251 1.21685 -81.6223
rradius 62.6173
rwrist 9.94289
rhand -14.512 -10.497
rfingers 7.12502
rthumb 11.6354 -40.154
lclavicle -1.3977e-014 -7.15625e-015
lhumerus -54.3073 -11.2398 92.7173
lradius 89.7611
lwrist -21.4532
lhand -17.2099 5.02761
lfingers 7.12502
lthumb 9.0328 34.8142
rfemur -25.7935 -0.704976 10.857
rtibia 105.945
rfoot 3.66865 -20.1117
rtoes -19.1708
lfemur -21.7536 0.173124 -31.2574
ltibia 56.8597
lfoot -4.41759 30.5132
ltoes -9.43669
26
root 1.22613 14.4065 20.5904 -182.673 4.36103 171.628
lowerback 0.353041 2.19135 -9.24632
upperback 2.03444 3.33046 -3.06514
thorax 1.59899 1.66866 2.02092
lowerneck -33.0426 0.673884 -1.78421
upperneck 42.9033 -3.79802 3.86589
head 25.77 -2.21923 0.934632
rclavicle 1.1368e-014 3.89618e-014
rhumerus -56.6693 0.450315 -79.4956
rradius 60.7748
rwrist 9.1369
rhand -14.5828 -10.5899
rfingers 7.12502
rthumb 11.5671 -40.2507
lclavicle 1.1368e-014 3.89618e-014
lhumerus -53.1048 -10.6939 92.6696
lradius 89.8919
lwrist -20.9801
lhand -17.2675 4.87946
lfingers 7.12502
lthumb 8.97726 34.6685
rfemur -29.0473 -0.513307 11.0863
rtibia 106.55
rfoot 2.04287 -20.5089
rtoes -19.7815
lfemur -20.1908 0.395428 -31.5392
ltibia 56.9809
lfoot -5.12255 31.1812
ltoes -10.4348
27
root 1.22656 14.3824 20.3128 -182.986 4.2242 171.509
lowerback 0.654045 1.78664 -9.13759
upperback 2.07754 2.77351 -3.20311
thorax 1.54317 1.40155 1.80951
lowerneck -32.9827 1.03884 -1.41265
upperneck 43.0592 -3.48792 3.75792
head 25.8711 -2.09253 0.884683
rclavicle -1.04983e-014 3.4191e-014
rhumerus -57.5139 -0.391421 -77.3058
rradius 59.1946
rwrist 8.63625
rhand -14.6061 -10.5377
rfingers 7.12502
rthumb 11.5446 -40.1998
lclavicle -1.04983e-014 3.4191e-014
lhumerus -51.9413 -10.5545 92.6104
lradius 90.1997
lwrist -20.5221
lhand -17.3477 4.83119
lfingers 7.12502
lthumb 8.89982 34.6235
rfemur -32.0858 -0.475434 11.3576
rtibia 106.603
rfoot 0.529258 -20.8128
rtoes -20.6396
lfemur -18.5917 0.428561 -31.7644
ltibia 57.0725
lfoot -5.53956 31.6685
ltoes -11.5155
28
root 1.22954 14.3628 20.0327 -183.327 3.88817 171.483
lowerback 0.99049 1.34047 -8.97023
upperback 2.13881 2.15344 -3.29276
thorax 1.48685 1.10112 1.6176
lowerneck -32.8548 1.39889 -0.962251
upperneck 43.1533 -3.14515 3.53973
head 25.8655 -1.94734 0.764355
rclavicle -1.30577e-014 5.1684e-015
rhumerus -58.3912 -1.15498 -75.0305
rradius 57.8467
rwrist 8.56348
rhand -14.5859 -10.4359
rfingers 7.12502
rthumb 11.5641 -40.0969
lclavicle -1.30577e-014 5.1684e-015
lhumerus -50.8532 -10.6773 92.5726
lradius 90.6123
lwrist -20.2001
lhand -17.4432 4.90026
lfingers 7.12502
lthumb 8.80764 34.6965
rfemur -34.8729 -0.572204 11.6956
rtibia 106.114
rfoot -0.84865 -21.0197
rtoes -21.4799
lfemur -16.9635 0.300139 -31.9007
ltibia 57.1581
lfoot -5.71791 31.9775
ltoes -12.5759
29
root 1.23641 14.3489 19.7484 -183.698 3.39242 171.561
lowerback 1.33518 0.895062 -8.73108
upperback 2.22151 1.53378 -3.36021
thorax 1.44318 0.799861 1.41213
lowerneck -32.6147 -1.86284 1.91207
upperneck 43.3834 -0.904735 1.02864
head 25.7369 1.40099 0.552977
rclavicle 3.14328e-015 -5.96354e-015
rhumerus -59.3329 -1.95333 -72.7039
rradius 56.6877
rwrist 8.97463
rhand -14.5408 -10.3134
rfingers 7.12502
rthumb 11.6076 -39.9719
lclavicle 3.14328e-015 -5.96354e-015
lhumerus -49.8254 -11.1538 92.5069
lradius 91.0617
lwrist -20.0616
lhand -17.5274 5.00187
lfingers 7.12502
lthumb 8.72643 34.8015
rfemur -37.3855 -0.753131 12.1114
rtibia 105.083
rfoot -2.02521 -21.1541
rtoes -22.2975
lfemur -15.2848 0.0598021 -31.9299
ltibia 57.213
lfoot -5.711 32.1342
ltoes -13.5478
30
root 1.24876 14.3419 19.4593 -184.1 2.78527 171.728
lowerback 1.65623 0.336501 -8.58651
upperback 2.33099 0.74923 -3.22469
thorax 1.44374 0.40348 1.47277
lowerneck -32.3115 -1.48441 2.30791
upperneck 43.2976 -0.317237 0.590111
head 25.506 1.59468 0.380605
rclavicle -1.50082e-014 2.42517e-014
rhumerus -60.1061 -2.21481 -70.2927
rradius 55.6469
rwrist 9.64303
rhand -14.4996 -10.2275
rfingers 7.12502
rthumb 11.6473 -39.8838
lclavicle -1.50082e-014 2.42517e-014
lhumerus -48.8292 -11.3917 92.513
lradius 91.4874
lwrist -20.1027
lhand -17.624 5.07296
lfingers 7.12502
lthumb 8.63321 34.8764
rfemur -39.6019 -0.959759 12.584
rtibia 103.523
rfoot -2.98873 -21.2606
rtoes -22.8614
lfemur -13.5195 -0.237594 -31.8522
ltibia 57.1781
lfoot -5.58327 32.15
ltoes -14.3873
31
root 1.26715 14.3445 19.1644 -184.509 2.11406 171.947
lowerback 1.90585 -0.214224 -8.47384
upperback 2.46188 -0.0164221 -3.0462
thorax 1.5056 0.0120528 1.59791
lowerneck -31.9636 -1.11992 2.7265
upperneck 43.1694 0.257264 0.0956178
head 25.2297 1.77968 0.165769
rclavicle 7.33018e-016 -8.34896e-015
rhumerus -60.8479 -2.40061 -67.9066
rradius 54.7103
rwrist 10.4681
rhand -14.4764 -10.2048
rfingers 7.12502
rthumb 11.6697 -39.8598
lclavicle 7.33018e-016 -8.34896e-015
lhumerus -47.8754 -11.8402 92.478
lradius 91.8643
lwrist -20.23
lhand -17.6969 5.04925
lfingers 7.12502
lthumb 8.56287 34.8556
rfemur -41.521 -1.15034 13.0648
rtibia 101.436
rfoot -3.71499 -21.3712
rtoes -23.1207
lfemur -11.6508 -0.548768 -31.6902
ltibia 56.9772
lfoot -5.40593 32.0309
ltoes -15.1263
